<svg id="Capa_1" enable-background="new 0 0 510.482 510.482" height="512" viewBox="0 0 510.482 510.482" width="512" xmlns="http://www.w3.org/2000/svg"><g><g><g id="XMLID_672_"><g><path d="m89.524 337.132 6.747 34.743 7.18 25.69c1.25 4.45 5.31 7.53 9.93 7.53h283.72c4.62 0 8.68-3.08 9.93-7.53l7.18-25.69 16.306-34.743z" fill="#fdb441"/><path d="m151.6 398.326-7.18-25.689-6.747-34.743h292.487l.357-.761h-340.993l6.747 34.743 7.18 25.69c1.25 4.45 5.31 7.53 9.93 7.53h44.28c-2.892-1.175-5.178-3.628-6.061-6.77z" fill="#fea713"/><path d="m495.941 273.055-3.81-7.65c-5.44-10.92-14.73-19.44-26.09-23.9l-1.26-.5-2.01-4.6c-5.99-13.73-17.89-24-32.36-27.9l-.52-.14c-4.62-4.62-10.07-8.23-15.99-10.68s-12.32-3.75-18.86-3.75h-9.82l-3.91-3.92c-9.25-9.24-21.79-14.44-34.86-14.44h-5.98l-3.01-3.01c-9.24-9.24-21.78-14.43-34.85-14.43h-12.72c-2.96-4.23-6.86-7.61-11.31-9.93s-9.46-3.58-14.62-3.58h-8.72s-55.555 51.906-59.721 52.403c-4.165.497-15.091 95.733-15.091 95.733l97.372 57.374 9.79-.45 193.41-38.78 19.06-19.52z" fill="#f9f7f8"/><path d="m277.801 273.055v77.08l-168.47 7.66-94.79-63.05v-21.69l3.81-7.65c5.44-10.92 14.73-19.44 26.09-23.9l1.26-.5 2.01-4.6c5.99-13.73 17.89-24 32.36-27.9l.52-.14c9.24-9.24 21.78-14.43 34.85-14.43h9.82l3.91-3.92c9.25-9.24 21.79-14.44 34.86-14.44h5.98l3.01-3.01c9.24-9.24 21.78-14.43 34.85-14.43h12.72c5.92-8.47 15.6-13.51 25.93-13.51h8.72v15.46c0 13.59-11.02 24.6-24.6 24.6-6.1 0-11.62 2.47-15.62 6.47s-6.47 9.53-6.47 15.63 2.47 11.62 6.47 15.62 9.52 6.47 15.62 6.47h18.28c15.95 0 28.88 12.92 28.88 28.87z" fill="#fd9468"/><path d="m502.981 280.085v24.22c0 2.26-1.09 4.39-2.92 5.71l-85.85 61.86h-317.94l-85.85-61.86c-1.83-1.32-2.92-3.45-2.92-5.71v-24.22c0-3.88 3.15-7.03 7.04-7.03h69.9c11.57 0 20.96 9.38 20.96 20.96v22.6c0 10.64 8.62 19.26 19.26 19.26 5.32 0 10.14-2.15 13.62-5.64 3.49-3.49 5.65-8.3 5.65-13.62v-22.6c0-11.58 9.38-20.96 20.96-20.96h331.05c3.89 0 7.04 3.15 7.04 7.03z" fill="#fece85"/><g><path d="m144.106 371.875h-47.835l-85.85-61.86c-1.83-1.32-2.92-3.45-2.92-5.71v-24.22c0-3.88 3.15-7.03 7.04-7.03h47.835c-3.89 0-7.04 3.15-7.04 7.03v9.106c0 12.358 5.988 23.949 16.067 31.1z" fill="#fec165"/></g></g></g><path d="m115.567 217.028c13.675 0 26.102-5.413 35.274-14.2 1.136-1.088 2.652-1.663 4.225-1.662h.025c15.483 0 29.617-5.862 40.32-15.473 1.214-1.09 2.821-1.617 4.447-1.497 1.232.091 2.475.141 3.729.141 24.543 0 45.201-16.924 50.934-39.712h-8.002c-10.33 0-20.01 5.04-25.93 13.51h-12.733c-13.066 0-25.598 5.191-34.837 14.43l-3.01 3.01h-5.98c-13.07 0-25.61 5.2-34.86 14.44l-3.91 3.92h-9.82c-11.738 0-23.04 4.198-31.917 11.744 8.77 7.09 19.917 11.349 32.045 11.349z" fill="#fe7d43"/><circle cx="115.567" cy="165.979" fill="#fee97d" r="31.049"/><circle cx="203.589" cy="131.817" fill="#fee97d" r="32.52"/><circle cx="155.091" cy="140.736" fill="#fee45a" r="40.429"/><path d="m179.829 172.246c-22.328 0-40.429-18.101-40.429-40.429 0-12.733 5.892-24.084 15.091-31.495-22.05.323-39.828 18.287-39.828 40.414 0 22.329 18.101 40.429 40.429 40.429 9.596 0 18.405-3.35 25.338-8.934-.201.003-.4.015-.601.015z" fill="#fedf30"/><path d="m169.496 243.037h-18.386c-5.706 0-10.332-4.626-10.332-10.332v-8.823c0-5.706 4.626-10.332 10.332-10.332h18.386c5.706 0 10.332 4.626 10.332 10.332v8.823c.001 5.706-4.625 10.332-10.332 10.332z" fill="#fdb441"/></g><g><path d="m501.058 266.497-2.209-4.436c-6.015-12.076-16.064-21.558-28.422-26.861l-.781-1.793c-3.561-8.167-9.102-15.489-16.023-21.176-3.201-2.627-7.925-2.165-10.557 1.035-2.629 3.201-2.165 7.928 1.035 10.557 5.1 4.188 9.178 9.575 11.795 15.577l2.007 4.604c.795 1.824 2.281 3.258 4.134 3.985l1.26.494c8.507 3.342 15.619 9.335 20.351 17.066h-198.347v-7.805c0-20.058-16.318-36.376-36.376-36.376h-18.288c-8.045 0-14.59-6.545-14.59-14.59s6.545-14.59 14.59-14.59c17.702 0 32.104-14.402 32.104-32.105v-7.958h1.217c7.877 0 15.276 3.853 19.793 10.306 1.403 2.005 3.697 3.199 6.145 3.199h12.711c11.164 0 21.659 4.347 29.552 12.239l3.009 3.01c1.406 1.406 3.314 2.197 5.304 2.197h5.981c11.163 0 21.658 4.348 29.552 12.241l3.915 3.915c1.407 1.406 3.314 2.196 5.304 2.196h9.818c7.918 0 15.653 2.251 22.37 6.508 3.498 2.218 8.132 1.182 10.35-2.318 2.218-3.499 1.18-8.133-2.318-10.351-9.122-5.782-19.635-8.839-30.401-8.839h-6.712l-1.718-1.719c-10.728-10.727-24.989-16.634-40.159-16.634h-2.874l-.813-.813c-10.727-10.726-24.988-16.633-40.159-16.633h-9.063c-7.392-8.521-18.181-13.505-29.586-13.505h-17.434c-2.886 0-5.731.326-8.493.942.154-.817.291-1.64.384-2.475 2.083-18.594-11.35-35.415-29.942-37.497-10.384-1.163-20.473 2.512-27.644 9.631-2.233-1.731-4.66-3.264-7.273-4.551-3.716-1.828-8.212-.301-10.042 3.415s-.301 8.212 3.415 10.042c9.26 4.56 15.012 13.795 15.012 24.102 0 14.806-12.045 26.851-26.851 26.851-14.805 0-26.85-12.045-26.85-26.851 0-9.685 5.256-18.657 13.716-23.416 3.61-2.031 4.891-6.604 2.86-10.214-2.031-3.611-6.605-4.891-10.214-2.86-10.614 5.97-17.981 16.207-20.448 27.851-17.876.939-32.131 15.777-32.131 33.882 0 9.901 4.277 18.81 11.064 25.017-5.959 2.552-11.486 6.126-16.345 10.657-16.126 4.774-29.163 16.28-35.907 31.754l-.781 1.792c-12.357 5.304-22.407 14.785-28.422 26.861l-2.21 4.436c-5.496 2.079-9.423 7.38-9.423 13.595v24.219c0 4.661 2.258 9.07 6.039 11.794l22.181 15.982c3.361 2.422 8.047 1.661 10.47-1.7 2.422-3.361 1.66-8.048-1.7-10.47l-21.99-15.845v-23.518h69.437c7.425 0 13.465 6.04 13.465 13.465v22.598c0 14.758 12.006 26.764 26.764 26.764s26.764-12.006 26.764-26.764v-22.598c0-7.425 6.04-13.465 13.465-13.465h330.589v23.518l-83.693 60.302h-25.703c-4.143 0-7.5 3.357-7.5 7.5s3.357 7.5 7.5 7.5h18.24l-4.521 16.175c-.338 1.209-1.45 2.053-2.705 2.053h-283.72c-1.255 0-2.367-.844-2.704-2.052l-4.521-16.176h246.654c4.143 0 7.5-3.357 7.5-7.5s-3.357-7.5-7.5-7.5h-254.119l-35.77-25.772c-3.36-2.42-8.048-1.661-10.47 1.7s-1.66 8.049 1.7 10.47l35.604 25.651 6.475 23.165c2.143 7.662 9.194 13.014 17.15 13.014h283.719c7.956 0 15.008-5.352 17.15-13.015l6.475-23.164 83.716-60.317c3.783-2.725 6.041-7.134 6.041-11.795v-24.219c0-6.215-3.927-11.516-9.424-13.591zm-294.254-153.493c10.374 1.162 17.868 10.547 16.706 20.922-.563 5.024-3.049 9.529-7 12.685-3.952 3.155-8.891 4.579-13.921 4.021-2.267-.254-4.434-.914-6.428-1.926.503-2.581.781-5.242.781-7.968 0-7.903-2.178-15.395-6.099-21.82 4.021-4.33 9.891-6.596 15.961-5.914zm-93.046 34.183c1.854 11.912 8.747 22.164 18.43 28.523-3.344 5.596-9.425 9.2-16.232 9.2-10.438 0-18.931-8.492-18.931-18.931-.001-9.694 7.327-17.698 16.733-18.792zm22.671 146.828v22.598c0 6.486-5.277 11.764-11.764 11.764s-11.764-5.277-11.764-11.764v-22.598c0-15.695-12.77-28.465-28.465-28.465h-57.6c4.732-7.731 11.843-13.724 20.35-17.065l1.261-.496c1.853-.727 3.339-2.16 4.134-3.984l2.007-4.604c5.104-11.708 15.104-20.329 27.433-23.652l.516-.139c1.269-.341 2.426-1.01 3.355-1.938 7.894-7.894 18.388-12.241 29.551-12.241h9.818c1.989 0 3.896-.79 5.304-2.196l3.915-3.915c7.894-7.894 18.389-12.241 29.552-12.241h5.981c1.989 0 3.897-.791 5.304-2.197l3.009-3.009c7.893-7.894 18.388-12.24 29.552-12.24h12.711c2.447 0 4.74-1.194 6.145-3.199 4.517-6.453 11.916-10.306 19.793-10.306h1.217v7.958c0 9.432-7.673 17.105-17.104 17.105-16.315 0-29.59 13.274-29.59 29.59s13.274 29.59 29.59 29.59h18.288c11.787 0 21.376 9.589 21.376 21.376v7.805h-105.41c-15.696-.002-28.465 12.768-28.465 28.463z"/><path d="m169.496 206.049h-18.386c-9.833 0-17.832 7.999-17.832 17.832v8.823c0 9.833 7.999 17.832 17.832 17.832h18.386c9.833 0 17.832-7.999 17.832-17.832v-8.823c0-9.833-7.999-17.832-17.832-17.832zm2.832 26.656c0 1.562-1.271 2.832-2.832 2.832h-18.386c-1.562 0-2.832-1.271-2.832-2.832v-8.823c0-1.562 1.271-2.832 2.832-2.832h18.386c1.562 0 2.832 1.271 2.832 2.832z"/><path d="m98.283 235.537h-7.177c-4.143 0-7.5 3.357-7.5 7.5s3.357 7.5 7.5 7.5h7.177c4.143 0 7.5-3.357 7.5-7.5s-3.357-7.5-7.5-7.5z"/><path d="m327.768 198.582-1.841 1.732c-3.133 2.946-8.031 2.938-11.15-.019l-1.787-1.694c-3.005-2.85-7.752-2.725-10.603.282-2.851 3.006-2.724 7.753.282 10.603l1.788 1.695c4.455 4.222 10.179 6.333 15.905 6.333 5.697 0 11.396-2.092 15.844-6.276l1.841-1.732c3.017-2.839 3.161-7.586.322-10.602-2.841-3.017-7.585-3.158-10.601-.322z"/><path d="m395.008 225.637-1.842 1.732c-3.129 2.946-8.028 2.939-11.149-.019l-1.787-1.694c-3.006-2.851-7.753-2.725-10.603.282-2.851 3.006-2.724 7.753.282 10.603l1.788 1.695c4.455 4.222 10.18 6.334 15.905 6.334 5.698 0 11.397-2.092 15.844-6.277l1.841-1.732c3.017-2.839 3.161-7.586.322-10.602-2.84-3.017-7.585-3.157-10.601-.322z"/></g></g></svg>